<?xml version="1.0" encoding="UTF-8"?><svg id="_Layer_" xmlns="http://www.w3.org/2000/svg" viewBox="0 0 311.35 523.97"><g><polygon points="311.35 523.97 0 523.97 0 93.89 91.59 93.89 91.59 104.89 11 104.89 11 512.97 300.35 512.97 300.35 104.89 219.77 104.89 219.77 93.89 311.35 93.89 311.35 523.97"/><path d="M184.16,127.14c-2.44-1.41-3.84-4.11-3.61-6.91,2.65-33.21-5.94-71.26-8.35-93.37,2.59,0,3.41-2.5,2.67-4.94l-2-9.95c-.18-.6,.26-1.26,.93-1.26,.79,0,1.07,.19,1.07-.98,0-5.35-1.46-9.73-6.78-9.73h-24.82c-5.33,0-6.78,4.39-6.78,9.73,0,1.17,.31,.98,1.06,.98,.68,0,1.12,.65,.94,1.26l-2,9.95c-.74,2.45,.09,4.94,2.67,4.94-2.4,22.1-11,60.16-8.35,93.37,.22,2.8-1.18,5.49-3.61,6.91-12.87,7.49-21.52,21.42-21.52,37.38v110.94h12.5v-110.94c0-10.9,5.86-21.09,15.3-26.58v137.52h72.2v-110.94c0-15.96-8.65-29.89-21.51-37.38ZM167.93,8.47c-2.15,1.6-2.44,1.8-4.06,2.94-1.05-.56-1.95-1.04-4.09-2.26-1.75,1.13-2.95,1.87-4.1,2.58-1.14-.71-2.38-1.48-4.1-2.59-2.05,1.17-3.07,1.71-4.09,2.27-2.11-1.49-1.74-1.22-4.06-2.94-1,.48-2.54,.92-3.99,1.49,1.34-1.19,2.65-2.17,3.99-3.22,3.15,1.58,2.65,1.32,4.06,2.08,1.68-1.17,2.85-1.93,4.09-2.75,1.22,.71,2.07,1.19,4.1,2.43,2.01-1.22,2.88-1.72,4.1-2.43,1.24,.81,2.49,1.63,4.09,2.75,.84-.45,1.27-.69,4.07-2.07,1,.78,2.61,2,3.99,3.22-1.45-.58-3-1.02-4-1.49Z"/></g><g><path d="M45.91,307.92h13.85c6.28,0,10.28,.57,13.78,2.71,3.93,2.36,6.07,5.93,6.07,10.57,0,5.93-3.57,9.42-7.85,10.92v.14c6.07,1.43,9.92,5.43,9.92,12.07,0,4.93-2.14,9.21-5.93,11.85-3.64,2.57-8.64,3.43-16.14,3.43h-13.71v-51.69Zm16.99,22.56c5.21,0,9.92-2.43,9.92-8.07,0-3.21-1.5-5.28-3.64-6.57-2.43-1.43-5.21-1.79-10.35-1.79h-6.14v16.42h10.21Zm-2.86,22.99c5.85,0,9.14-.57,11.49-2.21,1.64-1.14,3.36-3.28,3.36-6.78,0-5.71-4.5-8.78-12.21-8.78h-10v17.78h7.35Z"/><path d="M91.18,307.92h6.78v45.55h24.42v6.14h-31.2v-51.69Z"/><path d="M146.09,307.92h6.5l21.35,51.69h-7.28l-5.78-14.42h-23.27l-5.85,14.42h-6.93l21.28-51.69Zm-6.14,31.34h18.56l-4.21-10.71c-1.64-4.14-3.36-8.57-4.93-12.78h-.14c-1.57,4.21-3.28,8.57-5.07,12.99l-4.21,10.5Z"/><path d="M202.35,307.13c5.43,0,10.5,1.36,14.56,3.64v7.43c-3.86-2.86-9.14-4.78-14.64-4.78-11.78,0-20.06,8.85-20.06,20.35s8.28,20.35,20.63,20.35c5.71,0,10.78-1.93,14.85-5.21v7.5c-4.14,2.64-9.78,4-15.21,4-15.71,0-27.06-11.35-27.06-26.49s10.71-26.77,26.92-26.77Z"/><path d="M226.92,307.92h6.78v23.42l.14,.07,22.56-23.49h8.42l-23.2,23.99,25.2,27.7h-8.85l-24.13-26.7-.14,.07v26.63h-6.78v-51.69Z"/></g><g><path d="M59.39,400.58c-2.34-3.33-4.61-6.74-6.88-10.14l-.14,.07c.07,3.05,.14,6.95,.14,11.13v28.92h-6.52v-51.33h6.52l18.22,26.09,18.22-26.09h6.45v51.33h-6.73v-28.92c0-4.18,.07-8.08,.14-11.13l-.14-.07c-2.27,3.4-4.54,6.81-6.88,10.14l-11.2,16.02-11.2-16.02Z"/><path d="M130.07,378.46c14.89,0,26.09,11.55,26.09,26.44s-11.2,26.44-26.09,26.44-26.09-11.56-26.09-26.44,11.2-26.44,26.09-26.44Zm0,46.65c11.2,0,19.35-8.93,19.35-20.2s-8.15-20.2-19.35-20.2-19.35,8.93-19.35,20.2,8.15,20.2,19.35,20.2Z"/><path d="M187.92,378.46c14.89,0,26.09,11.55,26.09,26.44s-11.2,26.44-26.09,26.44-26.09-11.56-26.09-26.44,11.2-26.44,26.09-26.44Zm0,46.65c11.2,0,19.35-8.93,19.35-20.2s-8.15-20.2-19.35-20.2-19.35,8.93-19.35,20.2,8.15,20.2,19.35,20.2Z"/><path d="M222.58,430.57v-51.33h6.38l21.48,28.5c2.98,3.9,5.96,7.94,8.86,11.98l.14-.07c-.07-4.47-.14-9.64-.14-14.6v-25.8h6.52v51.33h-6.38l-21.48-28.5c-2.98-3.9-5.96-7.94-8.86-11.98l-.14,.07c.07,4.47,.14,9.64,.14,14.6v25.8h-6.52Z"/></g><g><path d="M44.05,450.22h9.64c4.38,0,7.16,.4,9.59,1.89,2.73,1.64,4.23,4.13,4.23,7.36,0,4.13-2.49,6.56-5.47,7.61v.1c4.23,.99,6.91,3.78,6.91,8.4,0,3.43-1.49,6.41-4.13,8.25-2.54,1.79-6.02,2.39-11.23,2.39h-9.54v-35.99Zm11.83,15.71c3.63,0,6.91-1.69,6.91-5.62,0-2.24-1.04-3.68-2.54-4.57-1.69-.99-3.63-1.24-7.21-1.24h-4.28v11.43h7.11Zm-1.99,16.01c4.08,0,6.36-.4,8-1.54,1.14-.8,2.34-2.29,2.34-4.72,0-3.98-3.13-6.12-8.5-6.12h-6.96v12.38h5.12Z"/><path d="M75.57,450.22h9.74c3.63,0,7.11,.15,10.04,1.79,2.98,1.64,4.97,4.42,4.97,8.4s-1.89,6.81-4.62,8.45c-1.29,.79-2.63,1.24-4.13,1.49l11.53,15.86h-5.72l-10.99-15.41h-6.11v15.41h-4.72v-35.99Zm10.84,16.7c3.18,0,5.42-.4,7.06-1.64,1.34-.99,2.14-2.49,2.14-4.47,0-2.29-1.04-4.08-2.93-5.12-1.94-1.04-4.23-1.19-7.71-1.19h-4.67v12.43h6.11Z"/><path d="M107.69,450.22h20.78v4.28h-16.06v10.94h14.07v4.13h-14.07v12.38h16.5v4.28h-21.23v-35.99Z"/><path d="M131.66,450.22h5.02l6.02,19.49c.94,3.03,1.94,6.31,2.83,9.4h.1c.9-3.08,1.89-6.26,2.88-9.45l6.11-19.44h3.48l6.11,19.49c1,3.18,1.94,6.21,2.88,9.4h.1c.89-3.08,1.89-6.36,2.83-9.45l6.01-19.44h4.77l-11.19,35.99h-5.02l-5.77-18.29c-.9-2.83-1.74-5.62-2.54-8.35h-.1c-.8,2.73-1.64,5.57-2.54,8.4l-5.72,18.25h-5.12l-11.19-35.99Z"/><path d="M185.45,450.22h4.72v35.99h-4.72v-35.99Z"/><path d="M198.22,486.21v-35.99h4.47l15.06,19.98c2.09,2.73,4.18,5.57,6.21,8.4l.1-.05c-.05-3.13-.1-6.76-.1-10.24v-18.1h4.57v35.99h-4.47l-15.06-19.98c-2.09-2.73-4.18-5.57-6.21-8.4l-.1,.05c.05,3.13,.1,6.76,.1,10.24v18.1h-4.57Z"/><path d="M253.61,449.67c4.67,0,8.45,1.39,11.04,2.98v5.37c-2.88-2.39-6.86-3.98-11.14-3.98-8.45,0-14.17,6.26-14.17,14.17s5.37,14.27,14.32,14.27c2.78,0,5.37-.65,7.36-1.69v-8.4h-8.05v-4.13h12.78v14.86c-3.18,2.19-7.85,3.63-12.48,3.63-10.64,0-18.64-7.75-18.64-18.44s7.8-18.64,18.99-18.64Z"/></g></svg>