<?xml version="1.0" encoding="UTF-8"?><svg id="_Layer_" xmlns="http://www.w3.org/2000/svg" viewBox="0 0 815.3 483.6"><defs><style>.cls-1{fill:#d68100;}</style></defs><path class="cls-1" d="M3.6,.79h13.85c6.28,0,10.28,.57,13.78,2.71,3.93,2.36,6.07,5.93,6.07,10.57,0,5.93-3.57,9.42-7.85,10.92v.14c6.07,1.43,9.92,5.43,9.92,12.07,0,4.93-2.14,9.21-5.93,11.85-3.64,2.57-8.64,3.43-16.14,3.43H3.6V.79ZM20.59,23.35c5.21,0,9.92-2.43,9.92-8.07,0-3.21-1.5-5.28-3.64-6.57-2.43-1.43-5.21-1.79-10.35-1.79h-6.14V23.35h10.21Zm-2.86,22.99c5.85,0,9.14-.57,11.49-2.21,1.64-1.14,3.36-3.28,3.36-6.78,0-5.71-4.5-8.78-12.21-8.78H10.38v17.78h7.35Z"/><path class="cls-1" d="M48.87,.79h6.78V46.34h24.42v6.14h-31.2V.79Z"/><path class="cls-1" d="M103.78,.79h6.5l21.35,51.69h-7.28l-5.78-14.42h-23.27l-5.85,14.42h-6.93L103.78,.79Zm-6.14,31.34h18.56l-4.21-10.71c-1.64-4.14-3.36-8.57-4.93-12.78h-.14c-1.57,4.21-3.28,8.57-5.07,12.99l-4.21,10.5Z"/><path class="cls-1" d="M160.04,0c5.43,0,10.5,1.36,14.56,3.64v7.43c-3.86-2.86-9.14-4.78-14.64-4.78-11.78,0-20.06,8.85-20.06,20.35s8.28,20.35,20.63,20.35c5.71,0,10.78-1.93,14.85-5.21v7.5c-4.14,2.64-9.78,4-15.21,4-15.71,0-27.06-11.35-27.06-26.49S143.84,0,160.04,0Z"/><path class="cls-1" d="M184.61,.79h6.78V24.2l.14,.07L214.09,.79h8.42l-23.2,23.99,25.2,27.7h-8.85l-24.13-26.7-.14,.07v26.63h-6.78V.79Z"/><path class="cls-1" d="M260.15,22.28c-2.36-3.36-4.64-6.78-6.93-10.21l-.14,.07c.07,3.07,.14,7,.14,11.21v29.13h-6.57V.79h6.57l18.35,26.27L289.92,.79h6.5V52.48h-6.78V23.35c0-4.21,.07-8.14,.14-11.21l-.14-.07c-2.29,3.43-4.57,6.85-6.93,10.21l-11.28,16.13-11.28-16.13Z"/><path class="cls-1" d="M331.34,0c14.99,0,26.27,11.64,26.27,26.63s-11.28,26.63-26.27,26.63-26.27-11.64-26.27-26.63S316.34,0,331.34,0Zm0,46.98c11.28,0,19.49-9,19.49-20.35s-8.21-20.35-19.49-20.35-19.49,9-19.49,20.35,8.21,20.35,19.49,20.35Z"/><path class="cls-1" d="M389.6,0c14.99,0,26.27,11.64,26.27,26.63s-11.28,26.63-26.27,26.63-26.27-11.64-26.27-26.63S374.61,0,389.6,0Zm0,46.98c11.28,0,19.49-9,19.49-20.35s-8.21-20.35-19.49-20.35-19.49,9-19.49,20.35,8.21,20.35,19.49,20.35Z"/><path class="cls-1" d="M424.52,52.48V.79h6.43l21.63,28.7c3,3.93,6,8,8.92,12.07l.14-.07c-.07-4.5-.14-9.71-.14-14.71V.79h6.57V52.48h-6.43l-21.63-28.7c-3-3.93-6-8-8.92-12.07l-.14,.07c.07,4.5,.14,9.71,.14,14.71v25.99h-6.57Z"/><path class="cls-1" d="M496.92,.79h13.85c6.28,0,10.28,.57,13.78,2.71,3.93,2.36,6.07,5.93,6.07,10.57,0,5.93-3.57,9.42-7.85,10.92v.14c6.07,1.43,9.92,5.43,9.92,12.07,0,4.93-2.14,9.21-5.93,11.85-3.64,2.57-8.64,3.43-16.14,3.43h-13.71V.79Zm16.99,22.56c5.21,0,9.92-2.43,9.92-8.07,0-3.21-1.5-5.28-3.64-6.57-2.43-1.43-5.21-1.79-10.35-1.79h-6.14V23.35h10.21Zm-2.86,22.99c5.85,0,9.14-.57,11.49-2.21,1.64-1.14,3.36-3.28,3.36-6.78,0-5.71-4.5-8.78-12.21-8.78h-10v17.78h7.35Z"/><path class="cls-1" d="M542.19,.79h13.99c5.21,0,10.21,.21,14.42,2.57,4.28,2.36,7.14,6.35,7.14,12.07s-2.71,9.78-6.64,12.14c-1.86,1.14-3.78,1.79-5.93,2.14l16.56,22.78h-8.21l-15.78-22.13h-8.78v22.13h-6.78V.79Zm15.56,23.99c4.57,0,7.78-.57,10.14-2.36,1.93-1.43,3.07-3.57,3.07-6.43,0-3.28-1.5-5.85-4.21-7.35-2.78-1.5-6.07-1.71-11.07-1.71h-6.71V24.77h8.78Z"/><path class="cls-1" d="M588.31,.79h29.84V6.92h-23.06v15.71h20.21v5.93h-20.21v17.78h23.7v6.14h-30.49V.79Z"/><path class="cls-1" d="M622.73,.79h7.21l8.64,27.99c1.36,4.35,2.78,9.07,4.07,13.49h.14c1.29-4.43,2.71-9,4.14-13.56l8.78-27.92h5l8.78,27.99c1.43,4.57,2.78,8.92,4.14,13.49h.14c1.28-4.43,2.71-9.14,4.07-13.56l8.64-27.92h6.85l-16.06,51.69h-7.21l-8.28-26.27c-1.29-4.07-2.5-8.07-3.64-12h-.14c-1.14,3.93-2.36,8-3.64,12.07l-8.21,26.2h-7.35L622.73,.79Z"/><path class="cls-1" d="M699.99,.79h6.78V52.48h-6.78V.79Z"/><path class="cls-1" d="M718.34,52.48V.79h6.43l21.63,28.7c3,3.93,6,8,8.92,12.07l.14-.07c-.07-4.5-.14-9.71-.14-14.71V.79h6.57V52.48h-6.43l-21.63-28.7c-3-3.93-6-8-8.92-12.07l-.14,.07c.07,4.5,.14,9.71,.14,14.71v25.99h-6.57Z"/><path class="cls-1" d="M797.88,0c6.71,0,12.14,2,15.85,4.28v7.71c-4.14-3.43-9.85-5.71-15.99-5.71-12.14,0-20.35,9-20.35,20.35s7.71,20.49,20.56,20.49c4,0,7.71-.93,10.57-2.43v-12.07h-11.57v-5.93h18.35v21.35c-4.57,3.14-11.28,5.21-17.92,5.21-15.28,0-26.77-11.14-26.77-26.49s11.21-26.77,27.27-26.77Z"/></svg>